{
    "asset" : {
        "generator" : "Khronos glTF Blender I/O v1.4.40",
        "version" : "2.0"
    },
    "scene" : 0,
    "scenes" : [
        {
            "name" : "Scene",
            "nodes" : [
                1,
                2,
                3,
                4
            ]
        }
    ],
    "nodes" : [
        {
            "name" : "Bolt",
            "rotation" : [
                -0.7071068286895752,
                3.109783319743542e-09,
                -3.109783319743542e-09,
                0.7071068286895752
            ],
            "translation" : [
                8.49211079243275e-18,
                0.05293681100010872,
                0.9263941645622253
            ]
        },
        {
            "children" : [
                0
            ],
            "name" : "Armature",
            "translation" : [
                -4.839591979980469,
                0.056090712547302246,
                0.5032812356948853
            ]
        },
        {
            "mesh" : 0,
            "name" : "Cube",
            "skin" : 0
        },
        {
            "name" : "Lamp",
            "rotation" : [
                0.16907575726509094,
                0.7558803558349609,
                -0.27217137813568115,
                0.570947527885437
            ],
            "translation" : [
                4.076245307922363,
                5.903861999511719,
                -1.0054539442062378
            ]
        },
        {
            "name" : "Camera",
            "rotation" : [
                0.48170700669288635,
                0.3342514932155609,
                -0.21292176842689514,
                0.7816000580787659
            ],
            "translation" : [
                7.481131553649902,
                5.34366512298584,
                6.5076398849487305
            ]
        }
    ],
    "animations" : [
        {
            "channels" : [
                {
                    "sampler" : 0,
                    "target" : {
                        "node" : 0,
                        "path" : "translation"
                    }
                },
                {
                    "sampler" : 1,
                    "target" : {
                        "node" : 0,
                        "path" : "rotation"
                    }
                },
                {
                    "sampler" : 2,
                    "target" : {
                        "node" : 0,
                        "path" : "scale"
                    }
                }
            ],
            "name" : "Action",
            "samplers" : [
                {
                    "input" : 26,
                    "interpolation" : "LINEAR",
                    "output" : 27
                },
                {
                    "input" : 26,
                    "interpolation" : "LINEAR",
                    "output" : 28
                },
                {
                    "input" : 26,
                    "interpolation" : "LINEAR",
                    "output" : 29
                }
            ]
        }
    ],
    "materials" : [
        {
            "doubleSided" : true,
            "name" : "Material",
            "pbrMetallicRoughness" : {
                "baseColorFactor" : [
                    0.4836001396179199,
                    0.250660240650177,
                    0.1654891073703766,
                    1
                ],
                "metallicFactor" : 0,
                "roughnessFactor" : 0.5
            }
        },
        {
            "doubleSided" : true,
            "name" : "Material.001",
            "pbrMetallicRoughness" : {
                "baseColorFactor" : [
                    0.15913905203342438,
                    0.1573634296655655,
                    0.15671418607234955,
                    1
                ],
                "metallicFactor" : 0,
                "roughnessFactor" : 0.5
            }
        },
        {
            "doubleSided" : true,
            "name" : "Material.002",
            "pbrMetallicRoughness" : {
                "baseColorFactor" : [
                    0.7635273933410645,
                    0.7635273933410645,
                    0.7635273933410645,
                    1
                ],
                "metallicFactor" : 0,
                "roughnessFactor" : 0.5
            }
        },
        {
            "doubleSided" : true,
            "name" : "Material.003",
            "pbrMetallicRoughness" : {
                "baseColorFactor" : [
                    0.41998031735420227,
                    0.41998031735420227,
                    0.41998031735420227,
                    1
                ],
                "metallicFactor" : 0,
                "roughnessFactor" : 0.5
            }
        },
        {
            "doubleSided" : true,
            "name" : "Material.004",
            "pbrMetallicRoughness" : {
                "baseColorFactor" : [
                    0.2736547291278839,
                    0.17431242763996124,
                    0.09016332030296326,
                    1
                ],
                "metallicFactor" : 0,
                "roughnessFactor" : 0.5
            }
        }
    ],
    "meshes" : [
        {
            "name" : "Cube",
            "primitives" : [
                {
                    "attributes" : {
                        "POSITION" : 0,
                        "NORMAL" : 1,
                        "JOINTS_0" : 2,
                        "WEIGHTS_0" : 3
                    },
                    "indices" : 4,
                    "material" : 0
                },
                {
                    "attributes" : {
                        "POSITION" : 5,
                        "NORMAL" : 6,
                        "JOINTS_0" : 7,
                        "WEIGHTS_0" : 8
                    },
                    "indices" : 9,
                    "material" : 1
                },
                {
                    "attributes" : {
                        "POSITION" : 10,
                        "NORMAL" : 11,
                        "JOINTS_0" : 12,
                        "WEIGHTS_0" : 13
                    },
                    "indices" : 14,
                    "material" : 2
                },
                {
                    "attributes" : {
                        "POSITION" : 15,
                        "NORMAL" : 16,
                        "JOINTS_0" : 17,
                        "WEIGHTS_0" : 18
                    },
                    "indices" : 19,
                    "material" : 3
                },
                {
                    "attributes" : {
                        "POSITION" : 20,
                        "NORMAL" : 21,
                        "JOINTS_0" : 22,
                        "WEIGHTS_0" : 23
                    },
                    "indices" : 24,
                    "material" : 4
                }
            ]
        }
    ],
    "skins" : [
        {
            "inverseBindMatrices" : 25,
            "joints" : [
                0
            ],
            "name" : "Armature"
        }
    ],
    "accessors" : [
        {
            "bufferView" : 0,
            "componentType" : 5126,
            "count" : 1304,
            "max" : [
                -4.672204494476318,
                0.3618883788585663,
                4.991227626800537
            ],
            "min" : [
                -5.006979465484619,
                -0.9145482182502747,
                -1.7698956727981567
            ],
            "type" : "VEC3"
        },
        {
            "bufferView" : 1,
            "componentType" : 5126,
            "count" : 1304,
            "type" : "VEC3"
        },
        {
            "bufferView" : 2,
            "componentType" : 5121,
            "count" : 1304,
            "type" : "VEC4"
        },
        {
            "bufferView" : 3,
            "componentType" : 5126,
            "count" : 1304,
            "type" : "VEC4"
        },
        {
            "bufferView" : 4,
            "componentType" : 5123,
            "count" : 1992,
            "type" : "SCALAR"
        },
        {
            "bufferView" : 5,
            "componentType" : 5126,
            "count" : 1609,
            "max" : [
                -4.692873477935791,
                0.4611920714378357,
                4.636002540588379
            ],
            "min" : [
                -4.9863104820251465,
                -0.9516562223434448,
                -4.99016809463501
            ],
            "type" : "VEC3"
        },
        {
            "bufferView" : 6,
            "componentType" : 5126,
            "count" : 1609,
            "type" : "VEC3"
        },
        {
            "bufferView" : 7,
            "componentType" : 5121,
            "count" : 1609,
            "type" : "VEC4"
        },
        {
            "bufferView" : 8,
            "componentType" : 5126,
            "count" : 1609,
            "type" : "VEC4"
        },
        {
            "bufferView" : 9,
            "componentType" : 5123,
            "count" : 2463,
            "type" : "SCALAR"
        },
        {
            "bufferView" : 10,
            "componentType" : 5126,
            "count" : 425,
            "max" : [
                -4.602794647216797,
                0.8363150954246521,
                2.6874499320983887
            ],
            "min" : [
                -5.008999824523926,
                0.017314782366156578,
                0.5378379821777344
            ],
            "type" : "VEC3"
        },
        {
            "bufferView" : 11,
            "componentType" : 5126,
            "count" : 425,
            "type" : "VEC3"
        },
        {
            "bufferView" : 12,
            "componentType" : 5121,
            "count" : 425,
            "type" : "VEC4"
        },
        {
            "bufferView" : 13,
            "componentType" : 5126,
            "count" : 425,
            "type" : "VEC4"
        },
        {
            "bufferView" : 14,
            "componentType" : 5123,
            "count" : 660,
            "type" : "SCALAR"
        },
        {
            "bufferView" : 15,
            "componentType" : 5126,
            "count" : 352,
            "max" : [
                -4.630460739135742,
                0.8502448201179504,
                3.439227819442749
            ],
            "min" : [
                -5.048723220825195,
                0.43198439478874207,
                0.5134139657020569
            ],
            "type" : "VEC3"
        },
        {
            "bufferView" : 16,
            "componentType" : 5126,
            "count" : 352,
            "type" : "VEC3"
        },
        {
            "bufferView" : 17,
            "componentType" : 5121,
            "count" : 352,
            "type" : "VEC4"
        },
        {
            "bufferView" : 18,
            "componentType" : 5126,
            "count" : 352,
            "type" : "VEC4"
        },
        {
            "bufferView" : 19,
            "componentType" : 5123,
            "count" : 528,
            "type" : "SCALAR"
        },
        {
            "bufferView" : 20,
            "componentType" : 5126,
            "count" : 80,
            "max" : [
                -4.672204494476318,
                0.21131163835525513,
                4.38037109375
            ],
            "min" : [
                -5.006979465484619,
                0.053677476942539215,
                3.4237818717956543
            ],
            "type" : "VEC3"
        },
        {
            "bufferView" : 21,
            "componentType" : 5126,
            "count" : 80,
            "type" : "VEC3"
        },
        {
            "bufferView" : 22,
            "componentType" : 5121,
            "count" : 80,
            "type" : "VEC4"
        },
        {
            "bufferView" : 23,
            "componentType" : 5126,
            "count" : 80,
            "type" : "VEC4"
        },
        {
            "bufferView" : 24,
            "componentType" : 5123,
            "count" : 120,
            "type" : "SCALAR"
        },
        {
            "bufferView" : 25,
            "componentType" : 5126,
            "count" : 1,
            "type" : "MAT4"
        },
        {
            "bufferView" : 26,
            "componentType" : 5126,
            "count" : 6,
            "max" : [
                0.24
            ],
            "min" : [
                0.04
            ],
            "type" : "SCALAR"
        },
        {
            "bufferView" : 27,
            "componentType" : 5126,
            "count" : 6,
            "type" : "VEC3"
        },
        {
            "bufferView" : 28,
            "componentType" : 5126,
            "count" : 6,
            "type" : "VEC4"
        },
        {
            "bufferView" : 29,
            "componentType" : 5126,
            "count" : 6,
            "type" : "VEC3"
        }
    ],
    "bufferViews" : [
        {
            "buffer" : 0,
            "byteLength" : 15648,
            "byteOffset" : 0
        },
        {
            "buffer" : 0,
            "byteLength" : 15648,
            "byteOffset" : 15648
        },
        {
            "buffer" : 0,
            "byteLength" : 5216,
            "byteOffset" : 31296
        },
        {
            "buffer" : 0,
            "byteLength" : 20864,
            "byteOffset" : 36512
        },
        {
            "buffer" : 0,
            "byteLength" : 3984,
            "byteOffset" : 57376
        },
        {
            "buffer" : 0,
            "byteLength" : 19308,
            "byteOffset" : 61360
        },
        {
            "buffer" : 0,
            "byteLength" : 19308,
            "byteOffset" : 80668
        },
        {
            "buffer" : 0,
            "byteLength" : 6436,
            "byteOffset" : 99976
        },
        {
            "buffer" : 0,
            "byteLength" : 25744,
            "byteOffset" : 106412
        },
        {
            "buffer" : 0,
            "byteLength" : 4926,
            "byteOffset" : 132156
        },
        {
            "buffer" : 0,
            "byteLength" : 5100,
            "byteOffset" : 137084
        },
        {
            "buffer" : 0,
            "byteLength" : 5100,
            "byteOffset" : 142184
        },
        {
            "buffer" : 0,
            "byteLength" : 1700,
            "byteOffset" : 147284
        },
        {
            "buffer" : 0,
            "byteLength" : 6800,
            "byteOffset" : 148984
        },
        {
            "buffer" : 0,
            "byteLength" : 1320,
            "byteOffset" : 155784
        },
        {
            "buffer" : 0,
            "byteLength" : 4224,
            "byteOffset" : 157104
        },
        {
            "buffer" : 0,
            "byteLength" : 4224,
            "byteOffset" : 161328
        },
        {
            "buffer" : 0,
            "byteLength" : 1408,
            "byteOffset" : 165552
        },
        {
            "buffer" : 0,
            "byteLength" : 5632,
            "byteOffset" : 166960
        },
        {
            "buffer" : 0,
            "byteLength" : 1056,
            "byteOffset" : 172592
        },
        {
            "buffer" : 0,
            "byteLength" : 960,
            "byteOffset" : 173648
        },
        {
            "buffer" : 0,
            "byteLength" : 960,
            "byteOffset" : 174608
        },
        {
            "buffer" : 0,
            "byteLength" : 320,
            "byteOffset" : 175568
        },
        {
            "buffer" : 0,
            "byteLength" : 1280,
            "byteOffset" : 175888
        },
        {
            "buffer" : 0,
            "byteLength" : 240,
            "byteOffset" : 177168
        },
        {
            "buffer" : 0,
            "byteLength" : 64,
            "byteOffset" : 177408
        },
        {
            "buffer" : 0,
            "byteLength" : 24,
            "byteOffset" : 177472
        },
        {
            "buffer" : 0,
            "byteLength" : 72,
            "byteOffset" : 177496
        },
        {
            "buffer" : 0,
            "byteLength" : 96,
            "byteOffset" : 177568
        },
        {
            "buffer" : 0,
            "byteLength" : 72,
            "byteOffset" : 177664
        }
    ],
    "buffers" : [
        {
            "byteLength" : 177736,
            "uri" : "data:application/octet-stream;base64,"
        }
    ]
}
