{
    "asset" : {
        "generator" : "Khronos glTF Blender I/O v1.4.40",
        "version" : "2.0"
    },
    "scene" : 0,
    "scenes" : [
        {
            "name" : "Scene",
            "nodes" : [
                0,
                1
            ]
        }
    ],
    "nodes" : [
        {
            "mesh" : 0,
            "name" : "AKMag",
            "scale" : [
                0.2848716974258423,
                0.2848716974258423,
                0.2848716974258423
            ],
            "translation" : [
                0,
                0.10608745366334915,
                0
            ]
        },
        {
            "mesh" : 1,
            "name" : "AKBody",
            "rotation" : [
                0,
                0,
                0.01068251021206379,
                0.99994295835495
            ],
            "scale" : [
                0.6083242297172546,
                0.1704733967781067,
                0.16924560070037842
            ],
            "translation" : [
                0,
                0.959060788154602,
                0
            ]
        }
    ],
    "materials" : [
        {
            "doubleSided" : true,
            "name" : "AKMagMat.001",
            "pbrMetallicRoughness" : {
                "baseColorFactor" : [
                    0.20791572332382202,
                    0.20791572332382202,
                    0.20791572332382202,
                    0
                ],
                "metallicFactor" : 0,
                "roughnessFactor" : 0
            }
        },
        {
            "doubleSided" : true,
            "name" : "AKBodyMetalMat.001",
            "pbrMetallicRoughness" : {
                "baseColorFactor" : [
                    0.19017735123634338,
                    0.19017735123634338,
                    0.19017735123634338,
                    0
                ],
                "metallicFactor" : 0,
                "roughnessFactor" : 0
            }
        },
        {
            "doubleSided" : true,
            "name" : "AKBodyWoodMat.001",
            "pbrMetallicRoughness" : {
                "baseColorFactor" : [
                    0.22025656700134277,
                    0.13063965737819672,
                    0.06781643629074097,
                    0
                ],
                "metallicFactor" : 0,
                "roughnessFactor" : 0
            }
        }
    ],
    "meshes" : [
        {
            "name" : "Cube.003",
            "primitives" : [
                {
                    "attributes" : {
                        "POSITION" : 0,
                        "NORMAL" : 1
                    },
                    "indices" : 2,
                    "material" : 0
                }
            ]
        },
        {
            "name" : "Cube.004",
            "primitives" : [
                {
                    "attributes" : {
                        "POSITION" : 3,
                        "NORMAL" : 4
                    },
                    "indices" : 5,
                    "material" : 1
                },
                {
                    "attributes" : {
                        "POSITION" : 6,
                        "NORMAL" : 7
                    },
                    "indices" : 8,
                    "material" : 2
                }
            ]
        }
    ],
    "accessors" : [
        {
            "bufferView" : 0,
            "componentType" : 5126,
            "count" : 510,
            "max" : [
                2.9664134979248047,
                1.8167692422866821,
                0.2386184185743332
            ],
            "min" : [
                -2.130972146987915,
                -4.550544261932373,
                -0.2386184185743332
            ],
            "type" : "VEC3"
        },
        {
            "bufferView" : 1,
            "componentType" : 5126,
            "count" : 510,
            "type" : "VEC3"
        },
        {
            "bufferView" : 2,
            "componentType" : 5123,
            "count" : 1104,
            "type" : "SCALAR"
        },
        {
            "bufferView" : 3,
            "componentType" : 5126,
            "count" : 8040,
            "max" : [
                7.738285064697266,
                2.7176311016082764,
                1.1043577194213867
            ],
            "min" : [
                -3.7444491386413574,
                -5.183932304382324,
                -1.1043574810028076
            ],
            "type" : "VEC3"
        },
        {
            "bufferView" : 4,
            "componentType" : 5126,
            "count" : 8040,
            "type" : "VEC3"
        },
        {
            "bufferView" : 5,
            "componentType" : 5123,
            "count" : 14076,
            "type" : "SCALAR"
        },
        {
            "bufferView" : 6,
            "componentType" : 5126,
            "count" : 770,
            "max" : [
                3.808155059814453,
                2.029231309890747,
                0.9446430802345276
            ],
            "min" : [
                -7.839816570281982,
                -9.394211769104004,
                -0.9446436762809753
            ],
            "type" : "VEC3"
        },
        {
            "bufferView" : 7,
            "componentType" : 5126,
            "count" : 770,
            "type" : "VEC3"
        },
        {
            "bufferView" : 8,
            "componentType" : 5123,
            "count" : 1446,
            "type" : "SCALAR"
        }
    ],
    "bufferViews" : [
        {
            "buffer" : 0,
            "byteLength" : 6120,
            "byteOffset" : 0
        },
        {
            "buffer" : 0,
            "byteLength" : 6120,
            "byteOffset" : 6120
        },
        {
            "buffer" : 0,
            "byteLength" : 2208,
            "byteOffset" : 12240
        },
        {
            "buffer" : 0,
            "byteLength" : 96480,
            "byteOffset" : 14448
        },
        {
            "buffer" : 0,
            "byteLength" : 96480,
            "byteOffset" : 110928
        },
        {
            "buffer" : 0,
            "byteLength" : 28152,
            "byteOffset" : 207408
        },
        {
            "buffer" : 0,
            "byteLength" : 9240,
            "byteOffset" : 235560
        },
        {
            "buffer" : 0,
            "byteLength" : 9240,
            "byteOffset" : 244800
        },
        {
            "buffer" : 0,
            "byteLength" : 2892,
            "byteOffset" : 254040
        }
    ],
    "buffers" : [
        {
            "byteLength" : 256932,
            "uri" : "data:application/octet-stream;base64,"
        }
    ]
}
